HIERARCHY
ROOT hip
{
	OFFSET 0.000000 0.000000 0.000000 
	CHANNELS 6 Xposition Yposition Zposition Xrotation Zrotation Yrotation
	JOINT abdomen
	{
		OFFSET 0.000000 3.402643 0.000000 
		CHANNELS 3 Xrotation Zrotation Yrotation
		JOINT chest
		{
			OFFSET 0.000000 8.438565 -0.680529 
			CHANNELS 3 Xrotation Zrotation Yrotation
			JOINT neck
			{
				OFFSET 0.000000 10.207942 -0.272212 
				CHANNELS 3 Xrotation Zrotation Yrotation
				JOINT head
				{
					OFFSET 0.000000 3.130431 0.000000 
					CHANNELS 3 Xrotation Zrotation Yrotation
					End Site
					{
						OFFSET 0.000000 3.130435 0.000000 
					}
				}
			}
			JOINT lCollar
			{
				OFFSET 3.470700 6.669187 -0.816635 
				CHANNELS 3 Yrotation Zrotation Xrotation
				JOINT lShldr
				{
					OFFSET 3.198488 0.000000 0.000000 
					CHANNELS 3 Zrotation Yrotation Xrotation
					JOINT lForeArm
					{
						OFFSET 10.139888 0.000000 0.000000 
						CHANNELS 3 Yrotation Zrotation Xrotation
						JOINT lHand
						{
							OFFSET 8.370511 0.000000 0.000000 
							CHANNELS 3 Zrotation Yrotation Xrotation
							End Site
							{
								OFFSET 4.083176 0.000000 0.000000 
							}
						}
					}
				}
			}
			JOINT rCollar
			{
				OFFSET -3.470700 6.669187 -0.816635 
				CHANNELS 3 Yrotation Zrotation Xrotation
				JOINT rShldr
				{
					OFFSET -3.198488 0.000000 0.000000 
					CHANNELS 3 Zrotation Yrotation Xrotation
					JOINT rForeArm
					{
						OFFSET -10.139888 0.000000 0.000000 
						CHANNELS 3 Yrotation Zrotation Xrotation
						JOINT rHand
						{
							OFFSET -8.370511 0.000000 0.000000 
							CHANNELS 3 Zrotation Yrotation Xrotation
							End Site
							{
								OFFSET -4.083176 0.000000 0.000000 
							}
						}
					}
				}
			}
		}
	}
	JOINT lThigh
	{
		OFFSET 5.308129 -1.633274 1.361059 
		CHANNELS 3 Xrotation Zrotation Yrotation
		JOINT lShin
		{
			OFFSET -2.041588 -20.007561 0.000000 
			CHANNELS 3 Xrotation Zrotation Yrotation
			JOINT lFoot
			{
				OFFSET 0.000000 -19.190928 -1.224953 
				CHANNELS 3 Xrotation Yrotation Zrotation
				End Site
				{
					OFFSET 0.000000 -2.449906 4.627600 
				}
			}
		}
	}
	JOINT rThigh
	{
		OFFSET -5.308129 -1.633274 1.361059 
		CHANNELS 3 Xrotation Zrotation Yrotation
		JOINT rShin
		{
			OFFSET 2.041588 -20.007561 0.000000 
			CHANNELS 3 Xrotation Zrotation Yrotation
			JOINT rFoot
			{
				OFFSET 0.000000 -19.190928 -1.224953 
				CHANNELS 3 Xrotation Yrotation Zrotation
				End Site
				{
					OFFSET 0.000000 -2.449906 4.627600 
				}
			}
		}
	}
}
MOTION
Frames: 10
Frame Time: 0.033333
9.485083 51.079998 74.622246 2.109375 2.080078 6.406604 29.569931 -21.285837 0.556117 -9.033203 7.802735 10.244142 51.553619 8.070152 2.616707 -80.859375 2.890625 -19.452633 2.000000 -2.000000 0.000000 -81.523438 12.783204 7.902553 -61.570248 22.491966 -2.731538 -14.554279 34.393322 3.762512 -2.000000 2.000000 0.000000 90.478516 -3.408203 19.804108 59.313709 -27.164051 -2.491352 -5.401599 -50.779938 -0.647126 -16.818129 1.474351 -5.089239 6.842095 -5.865497 -1.059843 13.185625 14.876262 -4.976003 18.409657 -4.815086 -27.208681 20.316380 4.941439 2.281073 18.957190 -12.242471 -16.797739 
9.693768 52.105362 77.166183 2.109375 2.275391 6.416403 29.428143 -21.439865 0.487754 -9.804688 6.513672 9.327280 51.553619 8.070152 2.616707 -76.845711 2.304688 -19.287109 2.000000 -2.000000 0.000000 -84.492188 11.562499 4.757816 -61.570248 22.491966 -2.731538 -14.021045 34.355385 4.243387 -2.000000 2.000000 0.000000 87.929688 -12.060547 26.247959 59.362705 -27.017782 -2.316484 -6.597686 -53.335651 -1.668783 -13.693516 1.434949 -4.403652 7.205951 -5.856122 -1.091626 10.082397 13.736171 -4.882590 10.735365 -6.629408 -26.244213 29.808462 4.311338 2.742221 22.788109 -18.064068 -13.414131 
9.677520 52.487900 79.811363 2.109375 2.451172 6.601980 29.563225 -21.349693 -0.090449 -10.371094 5.869141 8.330078 51.553619 8.070152 2.616707 -74.277344 3.876953 -17.500002 2.000000 -2.000000 0.000000 -87.509766 10.283203 1.495886 -61.437592 22.262024 -2.645852 -13.361671 34.511158 4.703048 -2.000000 2.000000 0.000000 84.355469 -18.417969 31.279295 59.314037 -27.154306 -2.490777 -7.632151 -54.485485 -1.870203 -9.496410 1.483402 -0.961409 5.592704 -5.856432 -1.454934 7.589619 11.104034 -3.434648 2.791156 -8.640569 -24.505999 39.539089 4.253643 3.549331 26.345711 -23.154566 -6.864256 
9.736722 52.759930 82.525650 2.265625 2.617188 6.962891 29.732821 -21.055531 -1.012670 -10.917969 5.410157 7.403264 51.553619 8.070152 2.616707 -72.519531 7.392577 -14.755860 2.000000 -2.000000 0.000000 -89.189453 9.667969 -0.730780 -61.437592 22.262024 -2.645852 -13.173970 34.527851 4.717777 -2.000000 2.000000 0.000000 84.365234 -22.138670 31.318357 59.314037 -27.154306 -2.490777 -7.388827 -53.282425 -0.649078 -4.899721 1.727466 0.052641 2.780190 -6.087189 -0.640699 6.317467 9.020062 -2.792169 -5.302351 -10.686930 -23.032234 48.068989 3.446972 4.144539 28.879168 -25.873623 0.442604 
10.060928 52.960407 85.241417 2.460938 2.792969 7.676257 29.953146 -20.710058 -2.072080 -11.630860 5.253907 6.591796 51.553619 8.070152 2.616707 -71.367195 10.302733 -12.539061 2.000000 -2.000000 0.000000 -89.160156 11.152343 -1.609439 -61.437298 22.262587 -2.636106 -13.349677 34.628181 4.272913 -2.000000 2.000000 0.000000 86.533203 -24.335938 28.081909 59.314346 -27.153742 -2.500522 -6.885433 -51.286621 0.798222 -0.252642 1.635862 -0.010721 -0.546179 -5.929710 -0.254463 5.295192 8.363019 -3.227039 -12.010588 -12.116431 -21.265808 53.707798 3.310405 3.844199 30.428984 -26.497761 4.845014 
10.393580 53.068081 87.662788 2.812500 2.792969 8.936023 30.133104 -20.114164 -3.176482 -12.167969 5.107422 5.781250 51.553619 8.070152 2.616707 -70.976563 11.933593 -11.687434 2.000000 -2.000000 0.000000 -87.714844 13.603516 -0.732422 -61.437298 22.262587 -2.636106 -13.610474 34.690792 3.613042 -2.000000 2.000000 0.000000 88.828125 -25.234377 25.640368 59.314346 -27.153742 -2.500522 -6.624476 -49.478203 2.087423 1.646722 1.616911 -1.429061 0.536468 -5.928504 -0.350670 3.668091 8.025955 -3.883018 -15.838278 -14.069168 -20.998827 54.246696 3.271299 3.888896 27.008606 -23.251211 3.105459 
10.778605 52.929165 90.358086 3.164063 2.802735 10.352039 30.280268 -19.343021 -4.215595 -12.519531 5.126953 5.049701 51.553619 8.070152 2.616707 -71.162109 13.251953 -11.169637 2.000000 -2.000000 0.000000 -85.439453 16.650393 1.330925 -61.539185 22.643379 -2.818669 -14.386349 34.751968 2.065442 -2.000000 2.000000 0.000000 91.484375 -25.058594 24.267580 59.314346 -27.153742 -2.500522 -6.852470 -48.815571 2.413160 4.566158 1.531520 -2.682099 0.205537 -6.291754 -0.315996 0.944165 7.871243 -3.565418 -17.470394 -16.210220 -22.499065 49.295712 3.349399 4.248859 20.065693 -16.590563 0.131381 
11.081440 52.679443 93.060104 3.671875 2.617188 12.119587 30.403610 -18.680290 -5.080337 -12.871094 5.312500 4.541920 51.553619 8.070152 2.616707 -71.513672 14.082030 -11.201173 2.000000 -2.000000 0.000000 -83.115234 19.003904 3.264899 -61.397060 22.403688 -2.732401 -14.486003 34.890343 1.822040 -2.000000 2.000000 0.000000 94.970703 -24.023438 23.183594 59.314346 -27.153742 -2.500522 -7.382851 -48.633636 2.350387 7.397995 2.097821 -3.373312 0.010566 -6.305031 -0.287874 -1.781999 6.915108 -2.979828 -18.259453 -16.752432 -24.035509 41.227055 4.130553 3.696070 15.378761 -11.484202 -1.544809 
11.297438 52.368256 95.786743 4.218750 2.451172 13.896903 30.269268 -18.197504 -5.578429 -13.027344 5.644532 4.268538 51.553619 8.070152 2.616707 -72.431641 14.560544 -11.953125 2.000000 -2.000000 0.000000 -81.347656 20.927734 5.208567 -61.397060 22.403688 -2.732401 -14.839993 34.964592 1.342379 -2.000000 2.000000 0.000000 97.207031 -22.460939 22.496269 59.314346 -27.153742 -2.500522 -8.013160 -48.491863 2.542382 10.051440 3.034200 -4.350142 -0.174717 -6.322660 -0.280036 -4.093535 5.948162 -3.120239 -17.801760 -13.376940 -26.604143 28.197975 4.920922 2.725380 12.900971 -10.921625 -1.352956 
11.413608 52.094292 98.473480 4.570313 2.099610 15.635121 29.871487 -17.592546 -5.565865 -12.646484 6.474609 4.726562 51.553619 8.070152 2.616707 -73.691406 14.218749 -13.398438 2.000000 -2.000000 0.000000 -80.986328 21.699219 6.536815 -61.539185 22.643379 -2.818669 -15.054778 34.987755 1.709787 -2.000000 2.000000 0.000000 97.695313 -21.435547 21.640625 59.314346 -27.153742 -2.500522 -8.107328 -48.316807 2.812149 12.477160 4.060762 -4.906556 0.547072 -6.300418 -0.367108 -6.084359 4.640273 -3.122576 -16.599020 -8.677403 -29.390945 12.140678 5.543243 1.174750 10.902699 -12.280694 -2.418477 
